<?xml version="1.0" encoding="utf-8"?>
<!-- Generator: Adobe Illustrator 25.4.1, SVG Export Plug-In . SVG Version: 6.00 Build 0)  -->
<svg version="1.1" xmlns="http://www.w3.org/2000/svg" xmlns:xlink="http://www.w3.org/1999/xlink" x="0px" y="0px"
	 viewBox="0 0 100 100" style="enable-background:new 0 0 100 100;" xml:space="preserve">
<style type="text/css">
	.st0{display:none;}
	.st1{display:inline;}
	.st2{opacity:0.3;}
	.st3{fill:#FFFFFF;}
</style>
<g id="Layer_1" class="st0">
	<g class="st1">
		<g class="st2">
			<path d="M37.29,14.6c0.05,0,0.09,0,0.14,0c0.28,0.41,0.49,0.86,0.71,1.3c0.6,1.16,1.17,2.33,1.67,3.54
				c0.07,0.18,0.16,0.27,0.36,0.21c0.05-0.02,0.11-0.01,0.17-0.02c0.75-0.1,1.51-0.22,2.26-0.31c1.34-0.16,2.68-0.26,4.03-0.34
				c1.04-0.06,2.07-0.08,3.11-0.1c1.13-0.02,2.26,0.01,3.39,0.06c1.14,0.05,2.28,0.12,3.42,0.21c1.4,0.12,2.8,0.28,4.19,0.49
				c0.35,0.05,0.35,0.05,0.49-0.27c0.58-1.32,1.18-2.63,1.85-3.91c0.15-0.28,0.33-0.55,0.43-0.86c0.07,0,0.14,0,0.21,0
				c0.07,0.02,0.13,0.05,0.2,0.06c1.57,0.27,3.12,0.6,4.67,0.98c2.59,0.63,5.14,1.41,7.65,2.31c2.06,0.74,4.09,1.58,6.08,2.5
				c0.23,0.11,0.4,0.24,0.54,0.45c0.8,1.24,1.6,2.48,2.35,3.75c1.5,2.51,2.87,5.08,4.11,7.73c1.07,2.29,2.04,4.62,2.89,7
				c1.23,3.41,2.21,6.89,2.95,10.44c0.35,1.66,0.64,3.32,0.87,5c0.15,1.07,0.29,2.14,0.38,3.22c0.05,0.54,0.09,1.08,0.14,1.62
				c0.08,0.85,0.13,1.7,0.17,2.55c0.04,0.86,0.03,1.73,0.03,2.6c0,0.11,0.01,0.22,0.05,0.33c0,0.67,0,1.34,0,2.01
				c-0.09,0.1-0.05,0.22-0.05,0.33c-0.01,0.45,0,0.89,0,1.34c-0.05,0.61-0.03,1.22-0.06,1.83c-0.07,1.13-0.16,2.25-0.23,3.38
				c-0.02,0.28-0.11,0.45-0.32,0.6c-1.48,1.08-2.98,2.14-4.53,3.13c-2.06,1.33-4.17,2.55-6.35,3.68c-2.44,1.26-4.95,2.38-7.52,3.36
				c-1.46,0.56-2.93,1.06-4.41,1.55c-0.36,0.12-0.37,0.11-0.58-0.19c-0.67-0.95-1.33-1.92-1.95-2.9c-0.99-1.57-1.89-3.2-2.74-4.85
				c-0.11-0.21-0.11-0.22,0.13-0.32c0.04-0.02,0.09-0.03,0.13-0.05c2.34-0.92,4.61-2.01,6.79-3.27c0.24-0.14,0.47-0.28,0.69-0.42
				c-0.02-0.05-0.02-0.08-0.03-0.09c-0.58-0.46-1.16-0.92-1.73-1.38c-0.1-0.09-0.18-0.06-0.28-0.01c-0.3,0.14-0.61,0.28-0.91,0.42
				c-3.31,1.49-6.74,2.65-10.28,3.48c-3.45,0.8-6.94,1.26-10.47,1.36c-1.79,0.05-3.58,0.03-5.36-0.12
				c-1.29-0.11-2.57-0.24-3.85-0.42c-2.13-0.3-4.22-0.74-6.3-1.3c-3.19-0.86-6.29-1.99-9.28-3.39c-0.19-0.09-0.29-0.05-0.43,0.06
				c-0.47,0.41-0.96,0.79-1.46,1.16c-0.08,0.06-0.18,0.11-0.2,0.22c0.04,0.07,0.1,0.09,0.16,0.13c1.46,0.87,2.95,1.67,4.5,2.38
				c0.94,0.43,1.89,0.85,2.87,1.22c0.3,0.11,0.3,0.12,0.15,0.41c-0.27,0.53-0.55,1.07-0.83,1.6c-1.14,2.12-2.42,4.14-3.82,6.1
				c-0.21,0.29-0.21,0.29-0.58,0.18c-0.1-0.03-0.2-0.06-0.3-0.09c-2.3-0.74-4.56-1.58-6.78-2.53c-2.58-1.1-5.09-2.35-7.53-3.74
				c-2.3-1.31-4.53-2.73-6.68-4.26c-0.53-0.37-1.05-0.76-1.57-1.14c-0.12-0.09-0.23-0.17-0.24-0.35c-0.06-0.9-0.15-1.79-0.2-2.69
				c-0.04-0.82-0.12-1.63-0.1-2.45c0-0.09,0.03-0.19-0.06-0.26c0.03-1.88-0.07-3.76,0.06-5.64c0.04-0.52,0.04-1.04,0.07-1.55
				c0.05-0.98,0.13-1.95,0.21-2.93c0.09-1.07,0.21-2.13,0.35-3.19c0.26-2.01,0.61-4,1.03-5.99c0.76-3.6,1.79-7.13,3.06-10.59
				c0.88-2.41,1.88-4.76,2.98-7.08c0.69-1.45,1.42-2.87,2.19-4.28c1.25-2.29,2.59-4.52,4.02-6.71c0.11-0.17,0.25-0.29,0.44-0.37
				c0.41-0.18,0.82-0.38,1.23-0.56c2.68-1.18,5.42-2.22,8.22-3.08c2.48-0.77,4.99-1.41,7.54-1.91
				C36.17,14.83,36.73,14.71,37.29,14.6z M74.21,54.01c0.02-1.69-0.35-3.29-1.13-4.79c-0.94-1.8-2.3-3.17-4.16-3.99
				c-1.46-0.65-2.98-0.8-4.54-0.48c-1.71,0.35-3.13,1.22-4.28,2.52c-1.7,1.91-2.47,4.18-2.53,6.71c-0.01,0.54,0.04,1.08,0.12,1.62
				c0.35,2.35,1.33,4.38,3.12,5.97c1.56,1.39,3.39,2.1,5.51,1.99c1.01-0.05,1.96-0.3,2.86-0.74c1.76-0.86,3.02-2.21,3.91-3.93
				C73.86,57.36,74.22,55.73,74.21,54.01z M26.8,54.06c-0.01,0.93,0.11,1.84,0.35,2.74c0.56,2.07,1.62,3.81,3.32,5.14
				c1.64,1.27,3.5,1.84,5.57,1.58c2.05-0.26,3.72-1.25,5.05-2.81c1.54-1.81,2.25-3.95,2.36-6.29c0.04-0.95-0.04-1.89-0.27-2.81
				c-0.7-2.82-2.23-5.01-4.9-6.31c-1.28-0.62-2.65-0.82-4.05-0.65c-2.05,0.25-3.73,1.23-5.06,2.79
				C27.56,49.34,26.83,51.57,26.8,54.06z"/>
		</g>
		<g>
			<path class="st3" d="M36.79,14.1c0.05,0,0.09,0,0.14,0c0.28,0.41,0.49,0.86,0.71,1.3c0.6,1.16,1.17,2.33,1.67,3.54
				c0.07,0.18,0.16,0.27,0.36,0.21c0.05-0.02,0.11-0.01,0.17-0.02c0.75-0.1,1.51-0.22,2.26-0.31c1.34-0.16,2.68-0.26,4.03-0.34
				c1.04-0.06,2.07-0.08,3.11-0.1c1.13-0.02,2.26,0.01,3.39,0.06c1.14,0.05,2.28,0.12,3.42,0.21c1.4,0.12,2.8,0.28,4.19,0.49
				c0.35,0.05,0.35,0.05,0.49-0.27c0.58-1.32,1.18-2.63,1.85-3.91c0.15-0.28,0.33-0.55,0.43-0.86c0.07,0,0.14,0,0.21,0
				c0.07,0.02,0.13,0.05,0.2,0.06c1.57,0.27,3.12,0.6,4.67,0.98c2.59,0.63,5.14,1.41,7.65,2.31c2.06,0.74,4.09,1.58,6.08,2.5
				c0.23,0.11,0.4,0.24,0.54,0.45c0.8,1.24,1.6,2.48,2.35,3.75c1.5,2.51,2.87,5.08,4.11,7.73c1.07,2.29,2.04,4.62,2.89,7
				c1.23,3.41,2.21,6.89,2.95,10.44c0.35,1.66,0.64,3.32,0.87,5c0.15,1.07,0.29,2.14,0.38,3.22c0.05,0.54,0.09,1.08,0.14,1.62
				c0.08,0.85,0.13,1.7,0.17,2.55c0.04,0.86,0.03,1.73,0.03,2.6c0,0.11,0.01,0.22,0.05,0.33c0,0.67,0,1.34,0,2.01
				c-0.09,0.1-0.05,0.22-0.05,0.33c-0.01,0.45,0,0.89,0,1.34c-0.05,0.61-0.03,1.22-0.06,1.83c-0.07,1.13-0.16,2.25-0.23,3.38
				c-0.02,0.28-0.11,0.45-0.32,0.6c-1.48,1.08-2.98,2.14-4.53,3.13c-2.06,1.33-4.17,2.55-6.35,3.68c-2.44,1.26-4.95,2.38-7.52,3.36
				c-1.46,0.56-2.93,1.06-4.41,1.55c-0.36,0.12-0.37,0.11-0.58-0.19c-0.67-0.95-1.33-1.92-1.95-2.9c-0.99-1.57-1.89-3.2-2.74-4.85
				c-0.11-0.21-0.11-0.22,0.13-0.32c0.04-0.02,0.09-0.03,0.13-0.05c2.34-0.92,4.61-2.01,6.79-3.27c0.24-0.14,0.47-0.28,0.69-0.42
				c-0.02-0.05-0.02-0.08-0.03-0.09c-0.58-0.46-1.16-0.92-1.73-1.38c-0.1-0.09-0.18-0.06-0.28-0.01c-0.3,0.14-0.61,0.28-0.91,0.42
				c-3.31,1.49-6.74,2.65-10.28,3.48c-3.45,0.8-6.94,1.26-10.47,1.36c-1.79,0.05-3.58,0.03-5.36-0.12
				c-1.29-0.11-2.57-0.24-3.85-0.42c-2.13-0.3-4.22-0.74-6.3-1.3c-3.19-0.86-6.29-1.99-9.28-3.39c-0.19-0.09-0.29-0.05-0.43,0.06
				c-0.47,0.41-0.96,0.79-1.46,1.16c-0.08,0.06-0.18,0.11-0.2,0.22c0.04,0.07,0.1,0.09,0.16,0.13c1.46,0.87,2.95,1.67,4.5,2.38
				c0.94,0.43,1.89,0.85,2.87,1.22c0.3,0.11,0.3,0.12,0.15,0.41c-0.27,0.53-0.55,1.07-0.83,1.6c-1.14,2.12-2.42,4.14-3.82,6.1
				c-0.21,0.29-0.21,0.29-0.58,0.18c-0.1-0.03-0.2-0.06-0.3-0.09c-2.3-0.74-4.56-1.58-6.78-2.53c-2.58-1.1-5.09-2.35-7.53-3.74
				c-2.3-1.31-4.53-2.73-6.68-4.26c-0.53-0.37-1.05-0.76-1.57-1.14c-0.12-0.09-0.23-0.17-0.24-0.35c-0.06-0.9-0.15-1.79-0.2-2.69
				c-0.04-0.82-0.12-1.63-0.1-2.45c0-0.09,0.03-0.19-0.06-0.26c0.03-1.88-0.07-3.76,0.06-5.64c0.04-0.52,0.04-1.04,0.07-1.55
				c0.05-0.98,0.13-1.95,0.21-2.93c0.09-1.07,0.21-2.13,0.35-3.19c0.26-2.01,0.61-4,1.03-5.99c0.76-3.6,1.79-7.13,3.06-10.59
				c0.88-2.41,1.88-4.76,2.98-7.08c0.69-1.45,1.42-2.87,2.19-4.28c1.25-2.29,2.59-4.52,4.02-6.71c0.11-0.17,0.25-0.29,0.44-0.37
				c0.41-0.18,0.82-0.38,1.23-0.56c2.68-1.18,5.42-2.22,8.22-3.08c2.48-0.77,4.99-1.41,7.54-1.91
				C35.67,14.33,36.23,14.21,36.79,14.1z M73.71,53.51c0.02-1.69-0.35-3.29-1.13-4.79c-0.94-1.8-2.3-3.17-4.16-3.99
				c-1.46-0.65-2.98-0.8-4.54-0.48c-1.71,0.35-3.13,1.22-4.28,2.52c-1.7,1.91-2.47,4.18-2.53,6.71c-0.01,0.54,0.04,1.08,0.12,1.62
				c0.35,2.35,1.33,4.38,3.12,5.97c1.56,1.39,3.39,2.1,5.51,1.99c1.01-0.05,1.96-0.3,2.86-0.74c1.76-0.86,3.02-2.21,3.91-3.93
				C73.36,56.86,73.72,55.23,73.71,53.51z M26.3,53.56c-0.01,0.93,0.11,1.84,0.35,2.74c0.56,2.07,1.62,3.81,3.32,5.14
				c1.64,1.27,3.5,1.84,5.57,1.58c2.05-0.26,3.72-1.25,5.05-2.81c1.54-1.81,2.25-3.95,2.36-6.29c0.04-0.95-0.04-1.89-0.27-2.81
				c-0.7-2.82-2.23-5.01-4.9-6.31c-1.28-0.62-2.65-0.82-4.05-0.65c-2.05,0.25-3.73,1.23-5.06,2.79
				C27.06,48.84,26.33,51.07,26.3,53.56z"/>
		</g>
	</g>
</g>
<g id="Layer_2" class="st0">
	<g class="st1">
		<g class="st2">
			<path d="M50.49,93.46c-7.38,0-14.75,0.1-22.13-0.02c-10.48-0.18-19.8-9.03-20.67-19.46c-0.11-1.38-0.17-2.76-0.17-4.14
				c-0.01-13.26-0.02-26.53,0-39.79c0.01-8.22,3.43-14.64,10.31-19.16c3.57-2.34,7.56-3.35,11.81-3.36
				c13.9-0.02,27.8-0.05,41.71,0.01c11.52,0.05,20.52,8.06,22.01,19.48c0.1,0.77,0.12,1.56,0.12,2.34c0,14.43,0.09,28.87-0.06,43.3
				c-0.11,10.97-9.73,20.57-20.69,20.78C65.31,93.57,57.9,93.46,50.49,93.46z M24.27,50.16c-0.13,14.12,10.84,25.78,24.79,26.54
				c14.77,0.8,26.93-10.6,27.61-24.71c0.73-15.12-10.54-27.28-25.83-27.67C36.77,23.97,24.6,35.28,24.27,50.16z M76.48,28.41
				c3.87,0,7-3.1,7-6.92c0-3.76-3.14-6.91-6.91-6.94c-3.84-0.03-7.01,3.07-7.04,6.9C69.51,25.28,72.63,28.4,76.48,28.41z"/>
			<path d="M50.57,32.14c10.18,0.01,18.37,8.28,18.36,18.54c-0.01,10.1-8.37,18.27-18.67,18.25c-9.94-0.01-18.15-8.37-18.13-18.46
				C32.15,40.3,40.36,32.13,50.57,32.14z"/>
		</g>
		<g>
			<g>
				<path class="st3" d="M49.99,92.96c-7.38,0-14.75,0.1-22.13-0.02c-10.48-0.18-19.8-9.03-20.67-19.46
					c-0.11-1.38-0.17-2.76-0.17-4.14C7,56.07,6.99,42.81,7.01,29.54c0.01-8.22,3.43-14.64,10.31-19.16
					c3.57-2.34,7.56-3.35,11.81-3.36c13.9-0.02,27.8-0.05,41.71,0.01c11.52,0.05,20.52,8.06,22.01,19.48
					c0.1,0.77,0.12,1.56,0.12,2.34c0,14.43,0.09,28.87-0.06,43.3c-0.11,10.97-9.73,20.57-20.69,20.78
					C64.81,93.07,57.4,92.96,49.99,92.96z M23.77,49.66c-0.13,14.12,10.84,25.78,24.79,26.54c14.77,0.8,26.93-10.6,27.61-24.71
					c0.73-15.12-10.54-27.28-25.83-27.67C36.27,23.47,24.1,34.78,23.77,49.66z M75.98,27.91c3.87,0,7-3.1,7-6.92
					c0-3.76-3.14-6.91-6.91-6.94c-3.84-0.03-7.01,3.07-7.04,6.9C69.01,24.78,72.13,27.9,75.98,27.91z"/>
				<path class="st3" d="M50.07,31.64c10.18,0.01,18.37,8.28,18.36,18.54c-0.01,10.1-8.37,18.27-18.67,18.25
					c-9.94-0.01-18.15-8.37-18.13-18.46C31.65,39.8,39.86,31.63,50.07,31.64z"/>
			</g>
		</g>
	</g>
</g>
<g id="Layer_3">
	<g>
		<g class="st2">
			<path d="M31.05,72.96C21.91,72.1,15.8,67.5,12.43,59.05c2.89,0.27,5.66,0.46,8.62-0.42C11.26,55.51,6.06,49,5.34,38.8
				c2.83,1.17,5.59,2.33,8.75,2.28c-8.66-7.36-10.7-16.11-5.9-26.69c10.96,12.8,24.6,19.84,41.31,21.02c-0.09-1-0.16-1.95-0.25-2.89
				c-0.94-9.7,5.59-18.83,15.04-21.06c6.68-1.57,12.71-0.31,17.9,4.26c1.29,1.14,2.54,1.42,4.11,0.82c3.28-1.24,6.58-2.42,9.86-3.62
				c-1.23,4.15-4.03,7.36-7.5,10.09c0.04,0.1,0.08,0.21,0.12,0.31c3.32-0.87,6.64-1.75,9.96-2.62c0.07,0.07,0.14,0.14,0.21,0.21
				c-1.76,1.97-3.48,3.98-5.29,5.9c-0.99,1.04-2.11,1.96-3.24,2.85c-0.8,0.64-1.15,1.37-1.13,2.39c0.12,6.42-0.84,12.68-2.89,18.77
				C81.84,64.39,73.7,75.15,61.32,82.56c-6.32,3.78-13.19,6.01-20.46,7.02c-9.24,1.29-18.32,0.57-27.18-2.46
				c-3.45-1.18-9.76-4.21-11.65-5.77C12.69,82.16,22.32,79.5,31.05,72.96z"/>
		</g>
		<g>
			<path class="st3" d="M30.55,72.46C21.41,71.6,15.3,67,11.93,58.55c2.89,0.27,5.66,0.46,8.62-0.42
				C10.76,55.01,5.56,48.5,4.84,38.3c2.83,1.17,5.59,2.33,8.75,2.28c-8.66-7.36-10.7-16.11-5.9-26.69
				C18.65,26.68,32.29,33.72,49,34.9c-0.09-1-0.16-1.95-0.25-2.89c-0.94-9.7,5.59-18.83,15.04-21.06c6.68-1.57,12.71-0.31,17.9,4.26
				c1.29,1.14,2.54,1.42,4.11,0.82c3.28-1.24,6.58-2.42,9.86-3.62c-1.23,4.15-4.03,7.36-7.5,10.09c0.04,0.1,0.08,0.21,0.12,0.31
				c3.32-0.87,6.64-1.75,9.96-2.62c0.07,0.07,0.14,0.14,0.21,0.21c-1.76,1.97-3.48,3.98-5.29,5.9c-0.99,1.04-2.11,1.96-3.24,2.85
				c-0.8,0.64-1.15,1.37-1.13,2.39c0.12,6.42-0.84,12.68-2.89,18.77C81.34,63.89,73.2,74.65,60.82,82.06
				c-6.32,3.78-13.19,6.01-20.46,7.02c-9.24,1.29-18.32,0.57-27.18-2.46c-3.45-1.18-9.76-4.21-11.65-5.77
				C12.19,81.66,21.82,79,30.55,72.46z"/>
		</g>
	</g>
</g>
</svg>
